<?xml version="1.0" encoding="utf-8"?>
<!-- Generator: Adobe Illustrator 16.0.0, SVG Export Plug-In . SVG Version: 6.00 Build 0)  -->
<!DOCTYPE svg PUBLIC "-//W3C//DTD SVG 1.1//EN" "http://www.w3.org/Graphics/SVG/1.1/DTD/svg11.dtd">
<svg version="1.1" id="object" xmlns="http://www.w3.org/2000/svg" xmlns:xlink="http://www.w3.org/1999/xlink" x="0px" y="0px"
	 width="800px" height="800px" viewBox="0 0 800 800" enable-background="new 0 0 800 800" xml:space="preserve">
<g>
	<g>
		<g>
			<polygon fill="#924B3A" points="550.23,382.688 545.758,383.433 542.031,382.688 542.031,262.69 550.23,262.69 			"/>
			<polygon fill="#462718" points="544.268,382.688 550.23,262.69 550.23,382.688 			"/>
		</g>
		<polygon fill="#5A7629" points="508.492,299.212 532.342,324.552 561.41,324.552 582.279,305.919 587.496,261.2 547.994,224.679 
			507.001,254.491 		"/>
		<polygon fill="#859F3F" points="507.001,254.491 547.994,224.679 550.23,262.69 		"/>
		<polygon fill="#6D8635" points="507.001,254.491 550.23,262.69 508.492,299.212 		"/>
		<polygon fill="#3A4811" points="532.342,324.552 582.279,305.919 561.41,324.552 		"/>
		<polygon fill="#4F6422" points="582.279,305.919 550.23,262.69 587.496,261.2 		"/>
		<polygon opacity="0.5" fill="#4F6422" points="532.342,324.552 550.23,262.69 582.279,305.919 		"/>
	</g>
	<g>
		<g>
			<polygon fill="#854435" points="290.928,381.409 285.435,382.108 280.858,381.409 280.858,268.755 290.928,268.755 			"/>
			<polygon fill="#391F14" points="283.604,381.409 290.928,268.755 290.928,381.409 			"/>
		</g>
		<g>
			<g>
				<polygon fill="#44571D" points="285.517,234.998 233.826,291.317 281.244,305.011 317.129,297.599 345.217,283.287 				"/>
				<polygon fill="#7A923A" points="233.826,291.317 281.244,305.011 285.517,234.998 				"/>
				<polygon opacity="0.8" fill="#2E3601" points="285.517,234.998 317.129,297.599 345.217,283.287 				"/>
				<polygon fill="#2F3B0E" points="233.826,291.317 281.244,305.011 317.129,297.599 345.217,283.287 321.401,306.247 
					285.517,312.837 253.696,302.933 				"/>
			</g>
			<g>
				<polygon fill="#44571D" points="282.362,208.222 237.702,256.882 278.671,268.714 309.675,262.308 333.942,249.942 				"/>
				<polygon fill="#7A923A" points="237.702,256.882 278.671,268.714 282.362,208.222 				"/>
				<polygon opacity="0.6" fill="#2E3908" points="282.362,208.222 309.675,262.308 333.942,249.942 				"/>
				<polygon fill="#2F3B0E" points="237.702,256.882 278.671,268.714 309.675,262.308 333.942,249.942 313.365,269.78 
					282.362,275.475 254.312,269.069 				"/>
			</g>
			<g>
				<polygon fill="#44571D" points="280.979,182.69 244.161,226.902 277.749,235.621 304.877,230.017 322.963,224.412 				"/>
				<polygon fill="#7A923A" points="244.161,226.902 277.749,235.621 280.979,182.69 				"/>
				<polygon opacity="0.7" fill="#3A4801" points="280.979,182.69 304.877,230.017 322.963,224.412 				"/>
				<polygon fill="#2F3B0E" points="244.161,226.902 261.471,233.599 277.749,235.621 304.877,230.017 322.963,224.412 
					308.106,238.734 280.979,243.716 256.434,238.111 				"/>
			</g>
			<polygon fill="#8FA942" points="244.161,226.902 280.979,182.69 261.602,233.13 			"/>
			<polygon fill="#8FA942" points="237.702,256.259 255.142,238.111 279.04,268.001 			"/>
		</g>
	</g>
	<g>
		<polygon fill="#543D1B" points="130.001,419.501 205.001,540.501 265.001,549.501 293.001,591.501 446.001,633.501 
			522.001,587.501 578.001,516.501 647.001,468.501 657.001,419.501 		"/>
		<polygon fill="#332614" points="205.001,540.501 248.001,466.501 265.001,549.501 		"/>
		<polygon fill="#7F5938" points="205.001,540.501 248.001,466.501 130.001,419.501 		"/>
		<polygon fill="#68472C" points="130.001,419.501 219.001,424.501 248.001,466.501 		"/>
		<polygon fill="#4F3424" points="248.001,466.501 265.001,549.501 293.001,591.501 		"/>
		<polygon fill="#68472C" points="248.001,466.501 293.001,591.501 374.001,493.501 		"/>
		<polygon fill="#40311B" points="374.001,493.501 414.001,455.501 535.001,438.501 		"/>
		<polygon fill="#4F3424" points="294.001,590.501 375.001,490.501 447.001,631.501 		"/>
		<polygon fill="#40311B" points="374.001,493.501 446.001,633.501 522.001,587.501 		"/>
		<path fill="#332614" d="M522.001,587.501c0-3,8-149,8-149l49,75L522.001,587.501z"/>
		<polygon fill="#4C3517" points="374.001,493.501 530.001,438.501 522.001,587.501 		"/>
		<polygon fill="#332614" points="446.001,632.501 485.001,564.501 522.001,587.501 		"/>
		<polygon fill="#40311B" points="485.001,564.501 524.001,548.501 522.001,587.501 		"/>
		<polygon fill="#332614" points="292.001,590.501 389.001,649.501 445.001,632.501 		"/>
		<polygon fill="#332614" points="647.001,468.501 657.001,419.501 609.001,443.501 		"/>
		<polygon fill="#40311B" points="579.001,513.501 609.001,443.501 530.001,438.501 		"/>
	</g>
	<polygon fill="#477A1F" points="130.001,419.501 236.001,441.501 400.5,469.501 530.5,444.501 609.001,443.501 657.001,419.501 
		576.001,381.501 421.001,360.501 244.001,371.501 	"/>
	<polygon fill="#B28252" points="564.5,424.501 515.5,429.501 421.5,449.501 314.5,427.501 267.688,395.802 259.5,375.501 
		279.5,382.501 323.5,411.501 423.5,430.501 510.357,413.189 536.5,412.501 	"/>
	<polygon fill="#68472C" points="298.5,390.501 396.5,409.501 450.5,393.501 552.5,384.501 536.181,349.656 458.5,260.501 
		441.5,210.501 337.5,214.501 301.5,284.501 259.5,375.501 	"/>
	<polygon fill="#477A1F" points="386.5,340.501 462.5,329.501 536.5,349.501 458.5,260.501 441.5,210.501 337.5,214.501 
		301.5,284.501 	"/>
	<polygon fill="#C6956A" points="412.255,271.52 456.5,295.501 473.5,285.501 435.5,261.558 	"/>
	<polygon fill="#332614" points="396.5,409.501 386.5,340.501 454.5,393.501 	"/>
	<polygon fill="#68472C" points="396.5,409.501 386.5,340.501 298.5,390.501 353.5,412.501 	"/>
	<polygon fill="#4F3424" points="386.5,340.501 390.5,343.501 454.5,393.501 462.5,329.501 	"/>
	<polygon fill="#4F3424" points="298.5,390.501 301.5,284.501 259.5,375.501 	"/>
	<polygon fill="#67A52B" points="301.5,284.501 439.5,284.501 371.5,246.501 337.5,214.501 	"/>
	<polygon fill="#3A6812" points="386.5,340.501 456.5,294.501 462.5,329.501 	"/>
	<polygon fill="#2E540A" points="456.5,295.501 462.5,329.501 536.5,349.501 	"/>
	<polygon fill="#3A6812" points="457.5,295.501 458.5,260.501 536.5,349.501 	"/>
	<polygon fill="#7F5938" points="298.5,390.501 301.5,284.501 386.5,340.501 	"/>
	<g>
		<g>
			<polygon fill="#8C4838" points="488.688,407.874 483.195,408.501 478.619,407.874 478.619,306.869 488.688,306.869 			"/>
			<polygon fill="#402316" points="481.364,407.874 488.688,306.869 488.688,407.874 			"/>
		</g>
		<g>
			<g>
				<polygon fill="#4A5E20" points="482.781,264.991 437.587,325.187 479.045,339.821 510.42,331.899 534.978,316.603 				"/>
				<polygon fill="#80993D" points="437.587,325.187 479.045,339.821 482.781,264.991 				"/>
				<polygon opacity="0.8" fill="#353D01" points="482.781,264.991 510.42,331.899 534.978,316.603 				"/>
				<polygon fill="#354210" points="437.587,325.187 479.045,339.821 510.42,331.899 534.978,316.603 514.155,341.144 
					482.781,348.186 454.959,337.601 				"/>
			</g>
			<g>
				<polygon fill="#4A5E20" points="480.023,236.371 440.976,288.38 476.795,301.026 503.902,294.18 525.12,280.963 				"/>
				<polygon fill="#80993D" points="440.976,288.38 476.795,301.026 480.023,236.371 				"/>
				<polygon opacity="0.6" fill="#344009" points="480.023,236.371 503.902,294.18 525.12,280.963 				"/>
				<polygon fill="#354210" points="440.976,288.38 476.795,301.026 503.902,294.18 525.12,280.963 507.129,302.167 
					480.023,308.253 455.498,301.407 				"/>
			</g>
			<g>
				<polygon fill="#4A5E20" points="478.813,209.083 446.623,256.338 475.989,265.656 499.708,259.666 515.521,253.676 				"/>
				<polygon fill="#80993D" points="446.623,256.338 475.989,265.656 478.813,209.083 				"/>
				<polygon opacity="0.7" fill="#404F01" points="478.813,209.083 499.708,259.666 515.521,253.676 				"/>
				<polygon fill="#354210" points="446.623,256.338 461.757,263.495 475.989,265.656 499.708,259.666 515.521,253.676 
					502.531,268.984 478.813,274.308 457.354,268.318 				"/>
			</g>
			<polygon fill="#96B045" points="446.623,256.338 478.813,209.083 461.871,262.994 			"/>
			<polygon fill="#96B045" points="440.976,287.714 456.223,268.318 477.118,300.265 			"/>
		</g>
	</g>
	<g>
		<g>
			<polygon fill="#A55542" points="200.449,409.194 194.956,409.894 190.38,409.194 190.38,296.54 200.449,296.54 			"/>
			<polygon fill="#59311F" points="193.125,409.194 200.449,296.54 200.449,409.194 			"/>
		</g>
		<g>
			<g>
				<polygon fill="#5E7728" points="195.038,262.783 143.348,319.103 190.766,332.796 226.65,325.384 254.738,311.072 				"/>
				<polygon fill="#95B247" points="143.348,319.103 190.766,332.796 195.038,262.783 				"/>
				<polygon opacity="0.8" fill="#4A5602" points="195.038,262.783 226.65,325.384 254.738,311.072 				"/>
				<polygon fill="#495B16" points="143.348,319.103 190.766,332.796 226.65,325.384 254.738,311.072 230.923,334.032 
					195.038,340.622 163.218,330.718 				"/>
			</g>
			<g>
				<polygon fill="#5E7728" points="191.884,236.007 147.224,284.667 188.192,296.499 219.196,290.093 243.464,277.728 				"/>
				<polygon fill="#95B247" points="147.224,284.667 188.192,296.499 191.884,236.007 				"/>
				<polygon opacity="0.6" fill="#48590C" points="191.884,236.007 219.196,290.093 243.464,277.728 				"/>
				<polygon fill="#495B16" points="147.224,284.667 188.192,296.499 219.196,290.093 243.464,277.728 222.887,297.565 
					191.884,303.26 163.833,296.854 				"/>
			</g>
			<g>
				<polygon fill="#5E7728" points="190.5,210.476 153.683,254.688 187.271,263.406 214.398,257.802 232.484,252.197 				"/>
				<polygon fill="#95B247" points="153.683,254.688 187.271,263.406 190.5,210.476 				"/>
				<polygon opacity="0.7" fill="#546801" points="190.5,210.476 214.398,257.802 232.484,252.197 				"/>
				<polygon fill="#495B16" points="153.683,254.688 170.992,261.384 187.271,263.406 214.398,257.802 232.484,252.197 
					217.628,266.52 190.5,271.501 165.955,265.896 				"/>
			</g>
			<polygon fill="#ABC94F" points="153.683,254.688 190.5,210.476 171.123,260.915 			"/>
			<polygon fill="#ABC94F" points="147.224,284.044 164.663,265.896 188.562,295.786 			"/>
		</g>
	</g>
	<g>
		<g>
			<polygon fill="#D15836" points="265.359,418.939 260.28,419.501 256.048,418.939 256.048,328.462 265.359,328.462 			"/>
			<polygon fill="#85401E" points="258.588,418.939 265.359,328.462 265.359,418.939 			"/>
		</g>
		<g>
			<polygon fill="#7BB529" points="231.955,370.839 214.363,342.54 222.483,309.634 246.841,291.206 277.966,295.813 
				300.971,315.558 303.001,347.147 286.762,372.155 260.374,378.736 			"/>
			<polygon fill="#BFF53F" points="222.483,309.634 246.841,291.206 260.374,322.796 			"/>
			<polygon fill="#A9DE3A" points="222.483,309.634 214.363,342.54 260.374,322.796 			"/>
			<polygon fill="#A9DE3A" points="260.374,322.796 246.841,291.206 277.966,295.813 			"/>
			<polygon fill="#74A323" points="260.374,322.796 300.971,315.558 281.349,349.779 			"/>
			<polygon fill="#698200" points="300.971,315.558 281.349,349.779 303.001,347.147 			"/>
			<polygon opacity="0.7" fill="#63850A" points="281.349,349.779 286.762,372.155 303.001,347.147 			"/>
			<polygon fill="#8FC532" points="214.363,342.54 260.374,322.796 281.349,349.779 			"/>
			<polygon fill="#74A323" points="214.363,342.54 231.955,370.839 281.349,349.779 			"/>
			<polygon fill="#698200" points="260.374,378.736 281.349,349.779 286.762,372.155 			"/>
			<polyline opacity="0.6" fill="#63850A" points="231.955,370.839 260.374,378.736 281.349,349.779 234.662,369.522 			"/>
		</g>
	</g>
	<g>
		<polygon fill="#5E8A1F" points="162.926,414.546 151.363,395.946 156.7,374.318 172.71,362.206 193.167,365.234 208.287,378.211 
			209.62,398.975 198.948,415.411 181.604,419.736 		"/>
		<polygon fill="#9DCA34" points="156.7,374.318 172.71,362.206 181.604,382.969 		"/>
		<polygon fill="#88B32F" points="156.7,374.318 151.363,395.946 181.604,382.969 		"/>
		<polygon fill="#88B32F" points="181.604,382.969 172.71,362.206 193.167,365.234 		"/>
		<polygon fill="#55781A" points="181.604,382.969 208.287,378.211 195.391,400.704 		"/>
		<polygon fill="#465700" points="208.287,378.211 195.391,400.704 209.62,398.975 		"/>
		<polygon opacity="0.7" fill="#435A07" points="195.391,400.704 198.948,415.411 209.62,398.975 		"/>
		<polygon fill="#709A27" points="151.363,395.946 181.604,382.969 195.391,400.704 		"/>
		<polygon fill="#55781A" points="151.363,395.946 162.926,414.546 195.391,400.704 		"/>
		<polygon fill="#465700" points="181.604,419.736 195.391,400.704 198.948,415.411 		"/>
		<polyline fill="#465700" points="162.926,414.546 181.604,419.736 195.391,400.704 164.705,413.681 		"/>
	</g>
	<g>
		<polygon fill="#5E8A1F" points="515.991,391.651 499.229,365.939 506.966,336.04 530.176,319.296 559.834,323.482 
			581.755,341.421 583.688,370.125 568.216,392.847 543.07,398.826 		"/>
		<polygon fill="#9DCA34" points="506.966,336.04 530.176,319.296 543.07,347.999 		"/>
		<polygon fill="#88B32F" points="506.966,336.04 499.229,365.939 543.07,347.999 		"/>
		<polygon fill="#88B32F" points="543.07,347.999 530.176,319.296 559.834,323.482 		"/>
		<polygon fill="#55781A" points="543.07,347.999 581.755,341.421 563.058,372.516 		"/>
		<polygon fill="#465700" points="581.755,341.421 563.058,372.516 583.688,370.125 		"/>
		<polygon opacity="0.7" fill="#435A07" points="563.058,372.516 568.216,392.847 583.688,370.125 		"/>
		<polygon fill="#709A27" points="499.229,365.939 543.07,347.999 563.058,372.516 		"/>
		<polygon fill="#55781A" points="499.229,365.939 515.991,391.651 563.058,372.516 		"/>
		<polygon fill="#465700" points="543.07,398.826 563.058,372.516 568.216,392.847 		"/>
		<polyline fill="#465700" points="515.991,391.651 543.07,398.826 563.058,372.516 518.571,390.454 		"/>
	</g>
	<polygon fill="#998E7E" points="415.5,147.501 415.5,260.501 443.5,247.501 443.5,142.501 	"/>
	<g>
		<polygon fill="#7BB529" points="199.964,421.738 190.228,406.077 194.722,387.865 208.201,377.667 225.428,380.216 
			238.16,391.144 239.283,408.626 230.296,422.468 215.692,426.109 		"/>
		<polygon fill="#BFF53F" points="194.722,387.865 208.201,377.667 215.692,395.149 		"/>
		<polygon fill="#A9DE3A" points="194.722,387.865 190.228,406.077 215.692,395.149 		"/>
		<polygon fill="#A9DE3A" points="215.692,395.149 208.201,377.667 225.428,380.216 		"/>
		<polygon fill="#74A323" points="215.692,395.149 238.16,391.144 227.3,410.083 		"/>
		<polygon fill="#698200" points="238.16,391.144 227.3,410.083 239.283,408.626 		"/>
		<polygon opacity="0.7" fill="#63850A" points="227.3,410.083 230.296,422.468 239.283,408.626 		"/>
		<polygon fill="#8FC532" points="190.228,406.077 215.692,395.149 227.3,410.083 		"/>
		<polygon fill="#74A323" points="190.228,406.077 199.964,421.738 227.3,410.083 		"/>
		<polygon fill="#698200" points="215.692,426.109 227.3,410.083 230.296,422.468 		"/>
		<polyline opacity="0.6" fill="#63850A" points="199.964,421.738 215.692,426.109 227.3,410.083 201.461,421.01 		"/>
	</g>
	<g>
		<polygon fill="#4F3424" points="421.545,416.501 453.5,410.501 440.568,385.501 		"/>
		<polygon fill="#68472C" points="421.545,416.501 404.5,406.501 440.568,385.501 		"/>
	</g>
	<polygon fill="#C9C0B9" points="388.5,144.501 388.5,238.501 415.5,256.501 415.5,147.501 	"/>
	<g>
		<polygon fill="#C6BCAB" points="562.538,428.501 616.5,415.218 616.5,360.425 563.368,372.048 		"/>
		<polygon fill="#FFFFFF" points="563.368,428.501 563.368,372.048 545.191,336.933 528.5,360.425 528.5,413.558 		"/>
		<polygon fill="#C6BCAB" points="528.5,413.558 563.368,428.501 563.368,413.558 528.5,399.444 		"/>
		<polygon fill="#CC5723" points="563.368,372.048 616.5,360.425 597.405,324.728 545.104,336.35 		"/>
		<polygon fill="#7F5938" points="535.142,416.878 535.142,377.859 551.745,384.501 551.745,423.52 		"/>
		<polygon fill="#7F7B71" points="574.99,382.011 574.99,406.916 586.613,403.596 586.613,379.52 		"/>
		<polygon fill="#7F7B71" points="594.085,377.859 594.085,402.765 605.708,399.444 605.708,375.369 		"/>
		<polygon fill="#B5A896" points="563.368,428.501 616.5,415.218 615.67,401.935 563.368,413.558 		"/>
		<polygon fill="#B54316" points="560.877,344.652 570.84,350.463 570.84,338.841 		"/>
		<polygon fill="#B54316" points="576.651,348.803 589.104,359.595 589.934,342.992 		"/>
		<polygon fill="#B54316" points="576.651,331.369 587.443,332.199 579.972,342.161 		"/>
	</g>
	<g>
		<polygon fill="#FFFFFF" points="401.462,276.501 347.5,263.218 347.5,208.425 400.632,220.048 		"/>
		<polygon fill="#C6BCAB" points="400.632,276.501 400.632,220.048 418.809,184.933 435.5,208.425 435.5,261.558 		"/>
		<polygon fill="#B5A896" points="435.5,261.558 400.632,276.501 400.632,261.558 435.5,247.444 		"/>
		<polygon fill="#AF3E12" points="400.632,220.048 347.5,208.425 366.595,172.728 418.896,184.35 		"/>
		<polygon fill="#68472C" points="428.858,264.878 428.858,225.859 412.255,232.501 412.255,271.52 		"/>
		<polygon fill="#7F7B71" points="383.915,226.859 383.915,251.765 363.292,247.444 363.292,223.369 		"/>
		<polygon fill="#C6BCAB" points="400.632,276.501 347.5,263.218 348.33,249.935 400.632,261.558 		"/>
		<polygon fill="#CC5723" points="403.123,192.652 393.16,198.463 393.16,186.841 		"/>
		<polygon fill="#CC5723" points="387.349,196.803 374.896,207.595 374.066,190.992 		"/>
		<polygon fill="#CC5723" points="387.349,179.369 376.557,180.199 384.028,190.161 		"/>
	</g>
	<polygon fill="#C6956A" points="421.5,449.501 469.5,423.501 521.5,427.501 	"/>
	<polyline fill="#C6956A" points="314.5,427.501 334.5,421.501 421.5,449.501 314.5,427.501 	"/>
	<polygon fill="#B54316" points="389.5,144.501 416.5,147.501 414.5,105.501 	"/>
	<polygon fill="#8E2A0C" points="415.5,147.501 413.5,105.501 443.5,142.501 	"/>
	<polygon fill="#7F7B71" points="422.99,156.011 422.99,180.916 434.613,177.596 434.613,153.52 	"/>
	<g>
		<g>
			<polygon fill="#A55542" points="635.293,428.96 631.642,429.509 628.6,428.96 628.6,340.575 635.293,340.575 			"/>
			<polygon fill="#59311F" points="630.425,428.96 635.293,340.575 635.293,428.96 			"/>
		</g>
		<polygon fill="#698930" points="601.219,367.475 620.689,386.14 644.42,386.14 661.458,372.415 665.717,339.477 633.468,312.577 
			600.001,334.535 		"/>
		<polygon fill="#95B247" points="600.001,334.535 633.468,312.577 635.293,340.575 		"/>
		<polygon fill="#7C993C" points="600.001,334.535 635.293,340.575 601.219,367.475 		"/>
		<polygon fill="#495B16" points="620.689,386.14 661.458,372.415 644.42,386.14 		"/>
		<polygon fill="#5E7728" points="661.458,372.415 635.293,340.575 665.717,339.477 		"/>
		<polygon opacity="0.5" fill="#5E7728" points="620.689,386.14 635.293,340.575 661.458,372.415 		"/>
	</g>
	<polygon fill="#593A23" points="353.5,412.501 386.5,340.501 396.5,409.501 	"/>
</g>
<g>
	<polygon fill="#CCDEE6" points="489.671,532.337 514.248,505.435 572.235,513.214 639.78,540.621 693.255,536.172 721.31,555.923 
		704.996,581.164 625.976,603.611 540.609,599.452 529.37,570.253 471.472,565.222 436.929,538.139 	"/>
	<polygon fill="#FFFFFF" points="489.671,532.337 572.235,513.214 514.248,505.435 	"/>
	<polygon fill="#D2E5ED" points="436.929,538.139 489.671,532.337 514.248,505.435 	"/>
	<polygon fill="#D5CCB9" points="436.929,538.139 489.671,532.337 471.472,565.222 	"/>
	<polygon fill="#E4DBC8" points="489.671,532.337 549.651,537.989 572.235,513.214 	"/>
	<polygon fill="#FFFFFF" points="536.431,532.911 572.235,513.214 625.089,554.148 	"/>
	<polygon fill="#FFFFFF" points="623.008,553.527 639.78,540.621 693.255,536.172 	"/>
	<polygon fill="#FFFFFF" points="529.37,570.253 623.008,553.527 646.366,574.78 	"/>
	<polygon fill="#D5CCB9" points="489.671,532.337 536.431,532.911 572.235,513.214 	"/>
	<polygon fill="#E2D8C2" points="471.472,565.222 489.671,532.337 536.431,532.911 625.089,554.148 	"/>
	<polygon fill="#D5CCB9" points="471.472,565.222 620.947,553.593 529.37,570.253 	"/>
	<polygon fill="#E2D8C2" points="529.37,570.253 540.609,599.452 646.366,574.78 	"/>
	<polygon fill="#D5CCB9" points="540.609,599.452 646.366,574.78 625.976,603.611 	"/>
	<polygon fill="#CCC3AF" points="625.976,603.611 646.366,574.78 704.996,581.164 	"/>
	<polygon fill="#F6EBD7" points="646.366,574.78 693.255,536.172 623.008,553.527 	"/>
	<polygon fill="#D5CCB9" points="648.87,574.15 646.366,574.78 704.996,581.164 721.31,555.923 	"/>
</g>
<g opacity="0.6">
	<polygon fill="#CCDEE6" points="295.429,130.755 273.177,105.808 219.899,112.311 157.639,136.713 108.634,132.048 82.683,149.859 
		97.372,173.192 169.614,194.647 247.968,191.764 258.597,165.103 311.764,161.12 343.747,136.653 	"/>
	<polygon fill="#FFFFFF" points="295.429,130.755 219.899,112.311 273.177,105.808 	"/>
	<polygon fill="#D2E5ED" points="343.747,136.653 295.429,130.755 273.177,105.808 	"/>
	<polygon fill="#D5CCB9" points="343.747,136.653 295.429,130.755 311.764,161.12 	"/>
	<polygon fill="#E4DBC8" points="295.429,130.755 240.345,135.284 219.899,112.311 	"/>
	<polygon fill="#FFFFFF" points="252.529,130.771 219.899,112.311 170.968,149.283 	"/>
	<polygon fill="#FFFFFF" points="172.884,148.736 157.639,136.713 108.634,132.048 	"/>
	<polygon fill="#FFFFFF" points="258.597,165.103 172.884,148.736 151.225,167.977 	"/>
	<polygon fill="#D5CCB9" points="295.429,130.755 252.529,130.771 219.899,112.311 	"/>
	<polygon fill="#E2D8C2" points="311.764,161.12 295.429,130.755 252.529,130.771 170.968,149.283 	"/>
	<polygon fill="#D5CCB9" points="311.764,161.12 174.773,148.819 258.597,165.103 	"/>
	<polygon fill="#E2D8C2" points="258.597,165.103 247.968,191.764 151.225,167.977 	"/>
	<polygon fill="#D5CCB9" points="247.968,191.764 151.225,167.977 169.614,194.647 	"/>
	<polygon fill="#CCC3AF" points="169.614,194.647 151.225,167.977 97.372,173.192 	"/>
	<polygon fill="#F6EBD7" points="151.225,167.977 108.634,132.048 172.884,148.736 	"/>
	<polygon fill="#D5CCB9" points="148.935,167.371 151.225,167.977 97.372,173.192 82.683,149.859 	"/>
</g>
<g>
	<polygon fill="#E2DFCB" points="457.433,113.246 549.229,129.087 608.111,108.682 665.271,95.581 580.272,57.844 488.005,78.633 
		410.714,74.376 	"/>
	<polygon fill="#FFFFFF" points="410.714,74.376 488.005,78.633 489.338,101.446 	"/>
	<polygon fill="#FFFFFF" points="514.961,71.654 536.646,94.731 578.589,59.27 580.272,57.844 	"/>
	<polygon fill="#D5D2C1" points="489.338,101.446 488.005,78.633 514.961,71.654 536.646,94.731 	"/>
	<path fill="#D5D2C1" d="M580.272,57.844"/>
	<polygon fill="#E2DFCB" points="410.714,74.376 457.433,113.246 489.338,101.446 	"/>
	<polygon fill="#D5D2C1" points="457.433,113.246 489.338,101.446 549.229,129.087 	"/>
	<polygon fill="#CCC9BB" points="591.747,114.983 573.425,83.808 665.271,95.581 	"/>
	<polygon fill="#F6F2E1" points="573.425,83.808 580.272,57.844 665.271,95.581 	"/>
	<polygon fill="#D5D2C1" points="536.646,94.731 573.425,83.808 591.747,114.983 	"/>
	<polygon fill="#F6F2E1" points="489.338,101.446 536.646,94.731 591.747,114.983 	"/>
	<polygon fill="#CCC9BB" points="549.229,129.087 542.979,108.653 591.747,114.983 	"/>
</g>
</svg>
